<svg width="54" height="57" viewBox="0 0 54 57" fill="none" xmlns="http://www.w3.org/2000/svg">
<path d="M0 47.5V40.9094C0 39.5635 0.31875 38.3167 0.95625 37.1688C1.59375 36.0208 2.475 35.15 3.6 34.5562C4.125 34.2792 4.63125 34.0219 5.11875 33.7844C5.64375 33.5469 6.1875 33.3292 6.75 33.1313V47.5H0ZM9 30.875C7.125 30.875 5.53125 30.1823 4.21875 28.7969C2.90625 27.4115 2.25 25.7292 2.25 23.75C2.25 21.7708 2.90625 20.0885 4.21875 18.7031C5.53125 17.3177 7.125 16.625 9 16.625C10.875 16.625 12.4688 17.3177 13.7812 18.7031C15.0938 20.0885 15.75 21.7708 15.75 23.75C15.75 25.7292 15.0938 27.4115 13.7812 28.7969C12.4688 30.1823 10.875 30.875 9 30.875ZM9 26.125C9.6375 26.125 10.1625 25.9073 10.575 25.4719C11.025 24.9969 11.25 24.4229 11.25 23.75C11.25 23.0771 11.025 22.5229 10.575 22.0875C10.1625 21.6125 9.6375 21.375 9 21.375C8.3625 21.375 7.81875 21.6125 7.36875 22.0875C6.95625 22.5229 6.75 23.0771 6.75 23.75C6.75 24.4229 6.95625 24.9969 7.36875 25.4719C7.81875 25.9073 8.3625 26.125 9 26.125ZM9 47.5V40.85C9 39.5042 9.31875 38.2771 9.95625 37.1688C10.6313 36.0208 11.5125 35.15 12.6 34.5562C14.925 33.3292 17.2875 32.4188 19.6875 31.825C22.0875 31.1917 24.525 30.875 27 30.875C29.475 30.875 31.9125 31.1917 34.3125 31.825C36.7125 32.4188 39.075 33.3292 41.4 34.5562C42.4875 35.15 43.35 36.0208 43.9875 37.1688C44.6625 38.2771 45 39.5042 45 40.85V47.5H9ZM13.5 42.75H40.5V40.85C40.5 40.4146 40.3875 40.0188 40.1625 39.6625C39.975 39.3063 39.7125 39.0292 39.375 38.8312C37.35 37.7625 35.3063 36.9708 33.2438 36.4563C31.1813 35.9021 29.1 35.625 27 35.625C24.9 35.625 22.8188 35.9021 20.7563 36.4563C18.6938 36.9708 16.65 37.7625 14.625 38.8312C14.2875 39.0292 14.0062 39.3063 13.7812 39.6625C13.5938 40.0188 13.5 40.4146 13.5 40.85V42.75ZM27 28.5C24.525 28.5 22.4063 27.5698 20.6438 25.7094C18.8813 23.849 18 21.6125 18 19C18 16.3875 18.8813 14.151 20.6438 12.2906C22.4063 10.4302 24.525 9.5 27 9.5C29.475 9.5 31.5938 10.4302 33.3563 12.2906C35.1188 14.151 36 16.3875 36 19C36 21.6125 35.1188 23.849 33.3563 25.7094C31.5938 27.5698 29.475 28.5 27 28.5ZM27 23.75C28.2375 23.75 29.2875 23.2948 30.15 22.3844C31.05 21.4344 31.5 20.3063 31.5 19C31.5 17.6938 31.05 16.5854 30.15 15.675C29.2875 14.725 28.2375 14.25 27 14.25C25.7625 14.25 24.6938 14.725 23.7938 15.675C22.9313 16.5854 22.5 17.6938 22.5 19C22.5 20.3063 22.9313 21.4344 23.7938 22.3844C24.6938 23.2948 25.7625 23.75 27 23.75ZM45 30.875C43.125 30.875 41.5312 30.1823 40.2188 28.7969C38.9062 27.4115 38.25 25.7292 38.25 23.75C38.25 21.7708 38.9062 20.0885 40.2188 18.7031C41.5312 17.3177 43.125 16.625 45 16.625C46.875 16.625 48.4688 17.3177 49.7813 18.7031C51.0938 20.0885 51.75 21.7708 51.75 23.75C51.75 25.7292 51.0938 27.4115 49.7813 28.7969C48.4688 30.1823 46.875 30.875 45 30.875ZM45 26.125C45.6375 26.125 46.1625 25.9073 46.575 25.4719C47.025 24.9969 47.25 24.4229 47.25 23.75C47.25 23.0771 47.025 22.5229 46.575 22.0875C46.1625 21.6125 45.6375 21.375 45 21.375C44.3625 21.375 43.8188 21.6125 43.3688 22.0875C42.9563 22.5229 42.75 23.0771 42.75 23.75C42.75 24.4229 42.9563 24.9969 43.3688 25.4719C43.8188 25.9073 44.3625 26.125 45 26.125ZM47.25 47.5V33.1313C47.8125 33.3292 48.3375 33.5469 48.825 33.7844C49.35 34.0219 49.875 34.2792 50.4 34.5562C51.525 35.15 52.4063 36.0208 53.0438 37.1688C53.6813 38.3167 54 39.5635 54 40.9094V47.5H47.25Z" fill="#1D1B20"/>
</svg>
