<svg width="45" height="45" viewBox="0 0 45 45" fill="none" xmlns="http://www.w3.org/2000/svg">
<path d="M20 7.00003H6C4.93913 7.00003 3.92172 7.42145 3.17157 8.1716C2.42143 8.92174 2 9.93916 2 11V39C2 40.0609 2.42143 41.0783 3.17157 41.8285C3.92172 42.5786 4.93913 43 6 43H34C35.0609 43 36.0783 42.5786 36.8284 41.8285C37.5786 41.0783 38 40.0609 38 39V25M35 4.00003C35.7956 3.20438 36.8748 2.75739 38 2.75739C39.1252 2.75739 40.2044 3.20438 41 4.00003C41.7956 4.79568 42.2426 5.87481 42.2426 7.00003C42.2426 8.12524 41.7956 9.20438 41 10L22 29L14 31L16 23L35 4.00003Z" stroke="#05182A" stroke-width="4" stroke-linecap="round" stroke-linejoin="round"/>
</svg>
